<svg width="40" height="40" viewBox="0 0 40 40" fill="none" xmlns="http://www.w3.org/2000/svg">
<g clip-path="url(#clip0_1_282)">
<path d="M19.4642 30C24.1609 30 27.0834 26.5392 27.0834 22.0742C27.0834 20.3908 26.8092 18.8708 24.8984 18.4142C25.3634 17.1408 26.705 13.4575 26.705 12.2775C26.705 11.2383 26.08 10.3675 24.9659 10.3675C23.19 10.3675 21.5984 15.5117 21.1 16.7383C20.7142 15.625 18.9075 10 17.315 10C16.0775 10 15.4967 10.8942 15.4967 12.0192C15.4967 13.3983 16.8575 16.9725 17.3509 18.3475C17.1009 18.2575 16.83 18.1792 16.5542 18.1792C15.6225 18.1792 14.6317 19.3158 14.6317 20.2342C14.6317 20.5817 14.8267 21.07 14.95 21.3942C13.4817 21.785 12.9167 22.7458 12.9167 24.195C12.9125 27.015 15.6359 30 19.4642 30V30ZM23.4892 14.2192C23.6492 13.7383 24.3292 11.7075 24.9659 11.7075C25.3084 11.7075 25.4 12.055 25.4 12.3325C25.4 13.0783 23.8642 17.2 23.525 18.1133L22.1717 17.8792L23.4892 14.2192ZM16.7467 11.8875V11.8867C16.7467 11.4217 17.3242 10.1017 18.5892 13.7267L19.9667 17.645C19.3459 17.5942 18.8642 17.5275 18.5584 17.7C18.1242 16.575 16.7467 13.0242 16.7467 11.8875V11.8875ZM16.655 19.5308L16.6559 19.5317C17.8217 19.5317 19.3267 23.2267 19.3267 23.7267C19.3267 23.9258 19.1317 24.1717 18.905 24.1717C18.0725 24.1717 15.8434 21.1675 15.8434 20.355C15.8467 20.0542 16.3484 19.5308 16.655 19.5308V19.5308ZM15.315 22.5892C15.7684 22.5892 17.4759 24.945 17.4759 25.445C17.4759 25.6367 17.1692 25.7692 17.0109 25.7692C16.37 25.7692 16.1192 25.1633 14.9775 23.7617C13.795 24.9217 15.7934 27.1558 17.2984 27.1558C18.3367 27.1558 19.0134 26.2108 18.8109 25.515C18.9584 25.515 19.1409 25.5267 19.2767 25.4917C19.3209 26.55 19.6392 27.8117 20.9367 27.9017C20.9367 27.8667 21.0167 27.6242 21.0167 27.6125C21.0167 26.9325 20.595 26.3392 20.595 25.6475C20.595 24.5417 21.4584 23.4717 22.3342 22.8467C22.6525 22.6125 23.0392 22.4675 23.4125 22.335C23.7992 22.1908 24.2092 22.0225 24.5025 21.7333C24.4584 21.2958 24.2759 20.9092 23.83 20.9092C22.7275 20.9092 19.03 21.0658 19.03 19.3583C19.03 19.0967 19.0342 18.8467 19.7234 18.8467C21.0092 18.8467 24.2734 19.1592 25.2284 19.9833C25.9484 20.6125 26.1959 24.405 23.9942 26.8075L23.9917 26.8083C22.8334 28.0583 21.3525 28.7067 19.625 28.7067C17.2609 28.7067 15.3934 27.4333 14.4942 25.2575C13.8134 23.5625 14.6459 22.5892 15.315 22.5892V22.5892ZM20.0659 21.8858C20.4534 22.0075 20.8509 22.0433 21.2492 22.1208C20.9542 22.3317 20.6925 22.59 20.4409 22.8667C20.3292 22.535 20.1934 22.2108 20.0659 21.8858Z" fill="#505F79"/>
</g>
<defs>
<clipPath id="clip0_1_282">
<rect width="20" height="20" fill="white" transform="translate(10 10)"/>
</clipPath>
</defs>
</svg>
