<svg width="40" height="40" viewBox="0 0 40 40" fill="none" xmlns="http://www.w3.org/2000/svg">
<g clip-path="url(#clip0_1_266)">
<g clip-path="url(#clip1_1_266)">
<path d="M28.9992 17.4611C28.9992 16.3212 28.6332 15.2504 27.9345 14.3178C28.2006 13.4197 28.2672 12.2798 28.2006 10.9672C28.1674 10.4145 27.7348 10 27.2025 10C26.903 10 24.3744 10.0345 22.9104 11.3817C21.6461 11.1399 20.3152 11.1399 19.0176 11.3817C17.587 10.0345 15.0583 10 14.7256 10C14.1932 10 13.7607 10.4145 13.7274 10.9672C13.6276 12.2798 13.7274 13.4197 13.9936 14.3178C13.2949 15.285 12.9289 16.3558 12.9289 17.4611C12.9289 19.8791 14.7256 22.0553 17.4539 23.0915C17.3541 23.2988 17.2875 23.5406 17.221 23.7824C14.3263 23.4715 12.9622 20.7427 12.8956 20.639C12.6627 20.1209 12.0639 19.9136 11.5648 20.19C11.0657 20.4318 10.8661 21.0535 11.1322 21.5717C11.1988 21.7444 13.0287 25.4404 17.0546 25.8549V28.9637C17.0546 29.5509 17.4871 30 18.0528 30H23.8753C24.4409 30 24.8735 29.5509 24.8735 28.9637V24.8532C24.8735 24.2314 24.7404 23.6442 24.5075 23.1261C27.2025 22.0553 28.9992 19.9136 28.9992 17.4611Z" fill="#505F79"/>
</g>
</g>
<defs>
<clipPath id="clip0_1_266">
<rect width="18" height="20" fill="white" transform="translate(11 10)"/>
</clipPath>
<clipPath id="clip1_1_266">
<rect width="18" height="20" fill="white" transform="translate(11 10)"/>
</clipPath>
</defs>
</svg>
