<svg width="40" height="40" viewBox="0 0 40 40" fill="none" xmlns="http://www.w3.org/2000/svg">
<g clip-path="url(#clip0_1_286)">
<g clip-path="url(#clip1_1_286)">
<path d="M29.7663 10.3698C29.4329 9.97109 28.8663 9.87143 28.4329 10.1704L26.4996 11.4993C25.5996 10.5359 24.3329 10.0043 22.9663 10.0043C20.2663 10.0043 18.0329 12.197 18.0329 14.9212C18.0329 15.3199 18.0663 15.6854 18.1663 16.0508C15.8329 15.5525 14.4329 13.8581 13.8996 10.8017C13.8329 10.403 13.5329 10.104 13.1329 10.0043C12.7663 9.90465 12.3663 10.0708 12.1329 10.3698C12.0663 10.4362 6.56628 18.0774 14.5329 24.5558C13.7663 26.1837 11.4663 27.579 10.5663 28.0441C10.1329 28.2435 9.93295 28.7086 10.0329 29.1737C10.1329 29.6388 10.5329 29.9378 10.9996 29.9378H12.7329C22.8663 29.9378 27.4663 24.9212 27.5663 13.692L29.6663 11.6987C30.0663 11.3664 30.0996 10.7684 29.7663 10.3698Z" fill="#505F79"/>
</g>
</g>
<defs>
<clipPath id="clip0_1_286">
<rect width="20" height="20" fill="white" transform="translate(10 10)"/>
</clipPath>
<clipPath id="clip1_1_286">
<rect width="20" height="19.9667" fill="white" transform="translate(10 9.97144)"/>
</clipPath>
</defs>
</svg>
