<svg width="40" height="40" viewBox="0 0 40 40" fill="none" xmlns="http://www.w3.org/2000/svg">
<g clip-path="url(#clip0_1_272)">
<path d="M23.6443 13.0344C20.1556 13.0344 17.2885 15.862 17.2885 19.3793V29.3103C17.2885 29.6896 17.5994 29.9999 17.9794 29.9999H21.5718C21.9518 29.9999 22.2626 29.6896 22.2626 29.3103V19.6551C22.2626 18.8965 22.8844 18.2758 23.6443 18.2758C24.4043 18.2758 25.026 18.8965 25.026 19.6551V29.3103C25.026 29.6896 25.3369 29.9999 25.7169 29.9999H29.3093C29.6892 29.9999 30.0001 29.6896 30.0001 29.3103V19.3793C30.0001 15.8965 27.1676 13.0344 23.6443 13.0344Z" fill="#505F79"/>
<path d="M14.2832 16.2759H10.6908C10.3109 16.2759 10 16.5862 10 16.9655V29.3104C10 29.6897 10.3109 30 10.6908 30H14.2832C14.6632 30 14.9741 29.6897 14.9741 29.3104V16.9655C14.9741 16.5862 14.6632 16.2759 14.2832 16.2759Z" fill="#505F79"/>
<path d="M12.487 10C11.1054 10 10 11.1034 10 12.4828C10 13.8621 11.1054 14.9655 12.487 14.9655C13.8687 14.9655 14.9741 13.8621 14.9741 12.4828C14.9741 11.1034 13.8687 10 12.487 10Z" fill="#505F79"/>
</g>
<defs>
<clipPath id="clip0_1_272">
<rect width="20" height="20" fill="white" transform="translate(10 10)"/>
</clipPath>
</defs>
</svg>
