<svg width="662" height="875" viewBox="0 0 662 875" fill="none" xmlns="http://www.w3.org/2000/svg">
<g clip-path="url(#clip0_111_26)">
<path d="M766.504 80.1959L821.439 169.616C821.439 169.616 788.332 185.641 741.498 221.36C701.709 251.839 651.326 309.362 651.326 309.362L558 148.674C558 148.674 599.683 99.3156 661.619 57.7667C718.888 19.1552 730.804 21.6051 730.804 21.6051L766.504 80.1959Z" fill="white" stroke="#262626" stroke-width="1.22338" stroke-miterlimit="10"/>
<path d="M577.835 127.287L660.116 271.86C660.116 271.86 687.606 241.503 717.963 215.556C770.344 171.177 810.621 152.343 810.621 152.343L730.479 21.4213C730.804 21.6051 657.587 40.256 577.835 127.287Z" fill="#262626"/>
<path d="M989.606 104.922C989.606 104.922 945.76 71.3267 854.904 104.455C764.048 137.583 665.378 226.57 665.378 226.57L574.1 68.328C574.1 68.328 698.652 -36.0517 782.371 -52.4088C850.212 -65.7343 885.728 -47.3622 885.728 -47.3622L989.606 104.922Z" fill="white" stroke="#262626" stroke-width="1.22338" stroke-miterlimit="10"/>
<path d="M969.056 34.7358L859.587 266.702L553.478 228.275" stroke="#FF6B00" stroke-width="1.22338" stroke-miterlimit="10"/>
<path d="M552.459 355.12L719.935 308.699L742.994 391.887L575.517 438.309L552.459 355.12Z" fill="white" stroke="#FF6B00" stroke-width="1.22338" stroke-miterlimit="10"/>
<path d="M467.643 697.776L448.554 703.067C443.565 700.889 438.391 699.035 433.332 696.603C432.682 696.235 432.102 696.122 431.452 695.754L425.388 673.876L458.476 664.704L467.643 697.776Z" fill="white" stroke="#FF6B00" stroke-width="1.22338" stroke-miterlimit="10"/>
<path d="M509.897 721.677L542.985 712.505L533.818 679.433L500.73 688.605L491.563 655.533L524.651 646.361L515.484 613.289L482.396 622.461L449.308 631.632L440.141 598.56L473.229 589.389L464.062 556.317L430.974 565.488L440.141 598.56L407.053 607.732L373.965 616.903L364.798 583.831L331.71 593.003L298.622 602.174L307.789 635.246L316.956 668.318L283.868 677.49L274.701 644.418L259.939 648.51L244.496 425.69C244.496 425.69 266.417 393.041 325.315 390.96C413.536 387.875 456.835 435.319 529.845 451.517C575.728 461.81 585.907 441.182 585.907 441.182L615.678 632.636C615.678 632.636 692.47 616.007 736.319 667.409C762.339 698.001 723.227 729.936 682.758 741.153C640.507 752.864 590.536 745.622 510.532 723.966L509.897 721.677Z" fill="white" stroke="#FF6B00" stroke-width="1.22338" stroke-miterlimit="10"/>
<path d="M509.898 721.676L505.826 722.805C494.532 719.635 483.097 715.956 471.521 711.768L467.643 697.776L500.731 688.604L509.898 721.676Z" fill="white" stroke="#FF6B00" stroke-width="1.22338" stroke-miterlimit="10"/>
<path d="M425.388 673.876L393.063 682.835C392.809 682.906 392.484 682.722 392.229 682.793L383.133 649.975L416.221 640.804L425.388 673.876Z" fill="white" stroke="#FF6B00" stroke-width="1.22338" stroke-miterlimit="10"/>
<path d="M355.404 678.481C342.525 678.489 331.227 680.251 320.976 682.819L316.957 668.318L350.045 659.146L355.404 678.481Z" fill="white" stroke="#FF6B00" stroke-width="1.22338" stroke-miterlimit="10"/>
<path d="M267.583 717.616L265.038 718.322L262.489 683.415L283.869 677.489L289.228 696.824C278.323 703.955 270.966 712.021 267.583 717.616Z" fill="white" stroke="#FF6B00" stroke-width="1.22338" stroke-miterlimit="10"/>
<path d="M340.878 626.075L373.966 616.903L383.133 649.975L350.045 659.147L340.878 626.075Z" fill="white" stroke="#FF6B00" stroke-width="1.22338" stroke-miterlimit="10"/>
<path d="M557.213 454.34L587.678 685.872C587.678 685.872 643.137 646.666 717.309 658.158L675.995 435.935C675.995 435.935 640.768 408.716 586.232 441.366C586.232 441.366 574.983 455.167 557.213 454.34Z" fill="#262626"/>
<path d="M586.232 441.365L579.201 386.334C579.201 386.334 661.35 371.234 701.651 421.701L743.663 679.07C743.663 679.07 739.334 662.463 689.679 647.463C659.784 638.491 618.762 650.683 618.762 650.683L586.232 441.365Z" fill="white" stroke="#FF6B00" stroke-width="1.22338" stroke-miterlimit="10"/>
<path d="M383.939 395.804C383.939 395.804 351.929 379.2 311.401 393.173C270.874 407.146 173.066 497.264 173.066 497.264L169.992 672.071C169.992 672.071 289.368 570.77 328.69 562.336C366.16 554.141 398.1 570.491 398.1 570.491L383.939 395.804Z" fill="#262626"/>
<path d="M352.725 352.407C352.725 352.407 322.505 343.251 280.187 349.776C242.082 355.681 141.851 453.867 141.851 453.867L138.778 628.674C138.778 628.674 259.352 531.698 297.475 518.939C335.599 506.18 366.183 519.618 366.183 519.618L352.725 352.407Z" fill="white" stroke="#FF6B00" stroke-width="1.22338" stroke-miterlimit="10"/>
<path d="M252.257 362.722L252.826 440.913L176.654 502.296L177.091 420.814L232.711 375.263L252.257 362.722Z" fill="#262626"/>
<path d="M339.866 697.581L425.386 673.876L440.406 728.063L354.886 751.768L339.866 697.581Z" fill="white" stroke="#FF6B00" stroke-width="1.22338" stroke-miterlimit="10"/>
<path d="M418.499 705.671L418.123 704.314L405.656 701.778L406.258 703.949L415.757 705.664L415.652 705.547L415.746 705.886L415.776 705.731L408.515 712.092L409.117 714.263L418.499 705.671ZM393.843 699.499L405.206 718.745L407.038 718.237L395.675 698.991L393.843 699.499ZM385.502 721.393L386.451 719.742L379.583 715.855L393.51 711.995L392.992 710.129L379.065 713.989L382.957 707.138L381.289 706.194L375.796 715.9L385.502 721.393ZM360.529 721.739L372.995 724.275L372.394 722.104L362.895 720.389L363 720.506L362.906 720.167L362.876 720.321L370.137 713.961L369.535 711.79L360.153 720.382L360.529 721.739Z" fill="black"/>
<path d="M232.594 358.037L232.909 436.298L156.737 497.681L157.198 422.219L232.594 358.037Z" fill="white" stroke="#262626" stroke-width="1.22338" stroke-miterlimit="10"/>
<path d="M341.95 293.756L335.03 220.339L411.273 159.21L417.347 229.574L341.95 293.756Z" fill="white" stroke="#262626" stroke-width="1.22338" stroke-miterlimit="10"/>
<path d="M376.2 239.336C371.421 240.66 366.473 237.862 365.149 233.085C363.825 228.308 366.626 223.361 371.405 222.036C376.185 220.712 381.132 223.51 382.456 228.287C383.781 233.064 380.98 238.011 376.2 239.336Z" fill="white" stroke="#262626" stroke-width="1.22338" stroke-miterlimit="10"/>
<path d="M196.552 450.484L196.547 478.154L169.671 499.849L169.958 473.197L196.552 450.484Z" fill="white" stroke="#262626" stroke-width="1.22338" stroke-miterlimit="10"/>
<path d="M294.03 491.677L294.254 535.994L252.573 562.614L252.772 519.824L294.03 491.677Z" fill="white" stroke="#262626" stroke-width="1.22338" stroke-miterlimit="10"/>
<path d="M433.972 521.922C415.557 527.026 396.494 516.243 391.392 497.838C386.29 479.432 397.082 460.374 415.497 455.269C433.912 450.165 452.975 460.948 458.077 479.354C463.179 497.759 452.387 516.818 433.972 521.922Z" fill="#262626"/>
<path d="M425.203 507.094C406.789 512.198 387.725 501.415 382.623 483.01C377.522 464.604 388.314 445.545 406.728 440.441C425.143 435.337 444.207 446.12 449.309 464.526C454.41 482.931 443.618 501.99 425.203 507.094Z" fill="white" stroke="#262626" stroke-width="1.22338" stroke-miterlimit="10"/>
<path d="M415.964 473.768L548.818 239.155" stroke="#FF6B00" stroke-width="1.22338" stroke-miterlimit="10"/>
<path d="M562.716 261.601C544.301 266.705 525.238 255.923 520.136 237.517C515.034 219.111 525.826 200.053 544.241 194.949C562.656 189.844 581.719 200.627 586.821 219.033C591.923 237.438 581.131 256.497 562.716 261.601Z" fill="white" stroke="#FF6B00" stroke-width="1.22338" stroke-miterlimit="10"/>
<path d="M540.747 196.191L546.369 182.853L578.801 223.722L554.226 270.529L548.195 262.613" stroke="#FF6B00" stroke-width="1.22338" stroke-miterlimit="10"/>
<path d="M711.634 343.81L711.153 342.075L695.216 338.833L695.986 341.609L708.129 343.8L707.994 343.651L708.114 344.085L708.153 343.887L698.871 352.018L699.64 354.793L711.634 343.81ZM682.915 360.177L683.577 362.562L697.455 358.715L696.794 356.33L682.915 360.177ZM669.11 364.003L669.771 366.389L683.65 362.542L682.989 360.156L669.11 364.003ZM655.304 367.83L655.966 370.215L669.844 366.368L669.183 363.983L655.304 367.83ZM638.698 347.4L653.224 372.003L655.566 371.353L641.04 346.751L638.698 347.4ZM630.615 374.673L631.277 377.059L645.155 373.212L644.494 370.826L630.615 374.673ZM611.437 371.583L627.374 374.825L626.604 372.049L614.461 369.857L614.596 370.006L614.476 369.573L614.437 369.77L623.719 361.64L622.95 358.864L610.956 369.848L611.437 371.583Z" fill="black"/>
<path d="M418.393 478.574C415.02 479.509 411.527 477.533 410.592 474.161C409.658 470.789 411.635 467.298 415.009 466.363C418.382 465.427 421.875 467.403 422.81 470.775C423.744 474.147 421.767 477.639 418.393 478.574Z" fill="white" stroke="#FF6B00" stroke-width="1.22338" stroke-miterlimit="10"/>
<path d="M661.841 124.822L695.865 112.104L691.776 74.6105L726.861 60.7765L731.09 98.7783L767.589 85.1002L771.916 124.445L735.206 137.359L699.515 149.992L703.49 188.064L669.114 199.51L672.764 237.399L639.449 247.729L636.01 210.604L632.388 173.803L665.35 162.201L661.841 124.822Z" fill="#666666"/>
<path d="M658.218 88.0211L654.341 51.2914L688.012 37.3013L691.776 74.6104L658.218 88.0211Z" fill="#262626"/>
<path d="M628.835 137.258L625.354 100.966L658.218 88.0215L661.841 124.822L628.835 137.258Z" fill="#262626"/>
<path d="M593.946 113.233L590.676 77.705L621.872 64.6748L625.354 100.966L593.946 113.233Z" fill="#262626"/>
<path d="M597.287 149.016L628.836 137.257L632.388 173.803L600.444 185.123L569.772 196.09L566.502 160.562L563.302 125.288L593.947 113.233L597.287 149.016Z" fill="#FF6B00"/>
<path d="M654.342 51.2917L621.873 64.6746L618.532 28.8919L615.263 -6.6364L647.124 -21.2208L680.443 -36.4829L684.32 0.246852L650.79 14.7458L654.342 51.2917Z" fill="#262626"/>
<path d="M557.185 55.7585L587.477 42.4312L590.676 77.705L560.244 90.5236L557.185 55.7585Z" fill="#262626"/>
<path d="M533.93 136.991L530.942 102.48L560.243 90.5234L563.301 125.289L533.93 136.991Z" fill="#262626"/>
<path d="M373.801 230.686L936.759 396.803" stroke="#FF6B00" stroke-width="1.22338" stroke-miterlimit="10"/>
</g>
<defs>
<clipPath id="clip0_111_26">
<rect width="1003.13" height="769.271" fill="white" transform="matrix(-0.963665 0.267112 0.267112 0.963665 966.682 -135)"/>
</clipPath>
</defs>
</svg>
