<svg width="586" height="354" viewBox="0 0 586 354" fill="none" xmlns="http://www.w3.org/2000/svg">
<g clip-path="url(#clip0_111_302)">
<path d="M88.8664 329.308H160.085V334.823H88.8664V329.308Z" fill="white" stroke="#262626" stroke-width="0.787818" stroke-miterlimit="10"/>
<path d="M132.039 301.892C132.039 301.892 122.9 309.927 111.083 306.304C99.2659 302.68 62.7111 290.862 62.7111 290.862L74.0557 280.778C74.0557 280.778 112.659 280.778 131.094 278.887L140.547 287.711L132.039 301.892Z" fill="white" stroke="#262626" stroke-width="0.787818" stroke-miterlimit="10"/>
<path d="M85.0849 194.906C85.0849 194.906 75.3159 209.245 90.2845 228.94C105.253 248.635 127.312 275.421 127.312 275.421C127.312 275.421 138.341 292.753 132.039 301.734L175.684 260.295L85.0849 194.906Z" fill="white" stroke="#262626" stroke-width="0.787818" stroke-miterlimit="10"/>
<path d="M244.854 184.822L335.296 287.396C335.296 287.396 363.657 320.484 352.628 339.392C341.598 358.3 316.703 353.888 300.002 346.64C283.3 339.392 85.0849 195.064 85.0849 195.064L248.163 55.4624L325.842 113.918L244.854 184.822Z" fill="white" stroke="#262626" stroke-width="0.787818" stroke-miterlimit="10"/>
<path d="M198.689 147.322L163.71 126.523L112.659 171.429L145.905 197.269L198.689 147.322Z" fill="#FF6B00" stroke="#262626" stroke-width="0.787818" stroke-miterlimit="10"/>
<path d="M220.117 147.322L133.142 88.0781L80.3586 134.559L167.334 197.27L220.117 147.322Z" fill="white" stroke="#262626" stroke-width="0.787818" stroke-miterlimit="10"/>
<path d="M154.728 119.748L135.505 135.977L187.186 178.204L221.062 146.219L154.728 119.748Z" fill="#262626"/>
<path d="M318.437 328.363L171.43 210.032L204.518 177.102L318.437 328.363Z" fill="#262626"/>
<path d="M371.062 278.257L189.234 66.3342L136.293 112.815L318.436 328.362L371.062 278.257Z" fill="white" stroke="#262626" stroke-width="0.787818" stroke-miterlimit="10"/>
<path d="M248.163 117.7L362.397 24.895C364.76 49.3174 375.16 74.0549 375.16 74.0549L486.399 178.992L448.111 212.238L450.632 214.286C468.91 232.564 450.632 254.623 450.632 254.623L348.059 344.749C360.979 326.944 345.38 301.734 345.38 301.734L244.539 184.664C214.917 148.898 248.163 117.7 248.163 117.7Z" fill="white" stroke="#262626" stroke-width="0.787818" stroke-miterlimit="10"/>
<path d="M435.034 268.488C435.034 268.488 444.487 249.423 429.204 231.303C414.078 213.183 276.21 103.992 276.21 103.992L294.802 85.5569L450.948 214.444C450.948 214.444 466.231 229.57 454.887 248.478L450.948 254.78L435.034 268.488Z" fill="#FF6B00" stroke="#262626" stroke-width="0.787818" stroke-miterlimit="10"/>
<path d="M595.591 227.207C595.591 227.207 620.328 257.931 605.675 285.032C591.021 312.133 554.152 299.056 550.055 295.589C545.801 292.28 339.55 123.057 339.55 123.057C339.55 123.057 325.054 108.719 298.268 105.725C267.386 102.259 248.163 117.857 248.163 117.857L362.397 25.0525C362.397 25.0525 397.533 5.67216 440.706 32.9307C483.878 60.1892 610.244 161.187 610.244 161.187L581.095 202.784C581.095 202.784 587.555 213.971 595.591 227.207Z" fill="white" stroke="#262626" stroke-width="0.787818" stroke-miterlimit="10"/>
<mask id="mask0_111_302" style="mask-type:alpha" maskUnits="userSpaceOnUse" x="247" y="17" width="364" height="285">
<path d="M595.545 226.834C595.545 226.834 620.283 257.559 605.629 284.66C590.976 311.761 554.106 298.684 550.01 295.217C545.755 291.908 339.505 122.685 339.505 122.685C339.505 122.685 325.009 108.347 298.223 105.353C267.34 101.887 248.118 117.485 248.118 117.485L362.351 24.6804C362.351 24.6804 397.488 5.30009 440.66 32.5586C483.833 59.8171 610.199 160.815 610.199 160.815L581.05 202.412C581.05 202.412 587.51 213.599 595.545 226.834Z" fill="white" stroke="#262626" stroke-width="0.787818" stroke-miterlimit="10"/>
</mask>
<g mask="url(#mask0_111_302)">
<g clip-path="url(#clip1_111_302)">
<path d="M453.706 96.0537L412.932 99.6327L405.789 141.686L363.526 146.159L370.669 103.51L326.918 107.387L334.061 63.2464L377.812 60.2639L420.372 57.2815L427.515 14.632L468.29 12.5442L475.731 -29.807L515.017 -31L507.577 10.4565L500.434 51.6147L461.147 54.299L453.706 96.0537Z" fill="#666666"/>
<path d="M446.564 137.212L439.719 178.37L398.944 183.44L405.789 141.686L446.564 137.212Z" fill="#262626"/>
<path d="M493.291 92.4747L486.148 133.036L446.564 137.212L453.707 96.0537L493.291 92.4747Z" fill="#262626"/>
<path d="M523.946 129.159L516.803 168.826L479.004 173.598L486.147 133.037L523.946 129.159Z" fill="#262626"/>
<path d="M531.089 89.1939L493.291 92.4747L500.434 51.6147L538.53 48.9304L575.138 46.2462L567.995 85.9132L560.554 125.282L523.946 129.159L531.089 89.1939Z" fill="#FF6B00"/>
<path d="M319.775 150.932L363.526 146.16L356.681 188.809L398.944 183.441L391.801 224.897L349.538 230.862L305.787 237.125L312.93 194.178L267.393 199.844L220.07 205.809L226.916 160.774L274.238 155.703L281.381 111.264L326.918 107.387L319.775 150.932Z" fill="#FF6B00"/>
<path d="M233.761 115.44L240.904 69.808L288.227 66.5272L281.381 111.264L233.761 115.44Z" fill="#262626"/>
<path d="M253.702 286.933L260.548 243.687L305.787 237.125L298.941 279.775L253.702 286.933Z" fill="#262626"/>
<path d="M439.718 178.37L479.005 173.598L471.861 213.563L464.718 253.231L425.432 259.494L384.955 266.055L391.8 224.897L432.575 219.23L439.718 178.37Z" fill="#262626"/>
<path d="M546.566 202.827L509.66 208.195L516.803 168.826L553.411 164.054L546.566 202.827Z" fill="#262626"/>
<path d="M596.27 121.405L589.126 159.879L553.411 164.054L560.554 125.282L596.27 121.405Z" fill="#262626"/>
<path d="M288.226 66.5271L295.369 21.4916L341.204 19.1056L334.061 63.2464L288.226 66.5271Z" fill="#262626"/>
</g>
</g>
<path d="M581.883 221.219L555.097 248.478L600.003 292.123C600.003 291.965 624.425 262.186 581.883 221.219Z" fill="#262626"/>
<path d="M568.017 210.347L637.345 128.099C637.345 128.099 663.974 156.618 669.961 173.95C677.997 197.27 666.81 211.293 666.81 211.293L600.003 291.965C600.003 291.965 611.505 283.299 598.742 249.738C586.61 217.753 568.017 210.347 568.017 210.347Z" fill="white" stroke="#262626" stroke-width="0.787818" stroke-miterlimit="10"/>
<path d="M347.744 100.053C347.744 100.053 309.141 78.4665 279.991 92.1746L341.284 42.0693L388.395 51.6807L347.744 100.053Z" fill="#262626"/>
<path d="M449.529 72.9519L355.148 0.472656L292.753 55.4624L387.291 132.038L449.529 72.9519Z" fill="white" stroke="#262626" stroke-width="0.787818" stroke-miterlimit="10"/>
<path d="M88.867 280.778L107.144 334.823H20.3269L0.473839 280.778H88.867Z" fill="white" stroke="#262626" stroke-width="0.787818" stroke-miterlimit="10"/>
<path d="M154.255 280.778C154.255 280.778 157.564 276.997 148.741 260.137C139.917 243.121 115.495 220.431 115.495 220.431C115.495 220.431 105.568 210.505 103.835 208.772L175.684 260.61L154.255 280.778Z" fill="#262626"/>
<circle r="11.625" transform="matrix(-1 0 0 1 53.2699 309)" fill="white" stroke="#262626" stroke-width="0.75"/>
</g>
<defs>
<clipPath id="clip0_111_302">
<rect width="673.269" height="353.1" fill="white" transform="matrix(-1 0 0 1 673.27 0)"/>
</clipPath>
<clipPath id="clip1_111_302">
<rect width="376.199" height="317.933" fill="white" transform="matrix(1 0 0 -1 220.07 286.933)"/>
</clipPath>
</defs>
</svg>
