<svg width="160" height="259" viewBox="0 0 160 259" fill="none" xmlns="http://www.w3.org/2000/svg">
<g clip-path="url(#clip0_1_352)">
<path d="M65.1053 241.266H117.284V245.306H65.1053V241.266Z" fill="white" stroke="#262626" stroke-width="0.577193" stroke-miterlimit="10"/>
<path d="M96.7362 221.18C96.7362 221.18 90.0408 227.067 81.3829 224.412C72.725 221.757 45.9432 213.099 45.9432 213.099L54.2548 205.711C54.2548 205.711 82.5372 205.711 96.0436 204.326L102.97 210.79L96.7362 221.18Z" fill="white" stroke="#262626" stroke-width="0.577193" stroke-miterlimit="10"/>
<path d="M62.3354 142.797C62.3354 142.797 55.1782 153.302 66.1449 167.732C77.1115 182.162 93.2729 201.786 93.2729 201.786C93.2729 201.786 101.354 214.485 96.7361 221.065L128.713 190.704L62.3354 142.797Z" fill="white" stroke="#262626" stroke-width="0.577193" stroke-miterlimit="10"/>
<path d="M179.391 135.41L245.652 210.56C245.652 210.56 266.431 234.802 258.351 248.655C250.27 262.507 232.031 259.275 219.794 253.965C207.558 248.655 62.3358 142.913 62.3358 142.913L181.815 40.6344L238.726 83.4621L179.391 135.41Z" fill="white" stroke="#262626" stroke-width="0.577193" stroke-miterlimit="10"/>
<path d="M145.566 107.936L119.939 92.6978L82.5369 125.598L106.894 144.53L145.566 107.936Z" fill="#FF6B00" stroke="#262626" stroke-width="0.577193" stroke-miterlimit="10"/>
<path d="M161.266 107.936L97.544 64.5308L58.872 98.5852L122.594 144.53L161.266 107.936Z" fill="white" stroke="#262626" stroke-width="0.577193" stroke-miterlimit="10"/>
<path d="M113.359 87.7334L99.2751 99.6236L137.139 130.561L161.958 107.127L113.359 87.7334Z" fill="#262626"/>
<path d="M233.3 240.575L125.595 153.88L149.838 129.754L233.3 240.575Z" fill="#262626"/>
<path d="M271.856 203.864L138.64 48.5994L99.8522 82.6538L233.299 240.574L271.856 203.864Z" fill="white" stroke="#262626" stroke-width="0.577193" stroke-miterlimit="10"/>
<path d="M181.815 86.2316L265.508 18.2383C267.24 36.1313 274.859 54.2551 274.859 54.2551L356.358 131.137L328.307 155.495L330.154 156.996C343.545 170.386 330.154 186.548 330.154 186.548L255.003 252.579C264.469 239.534 253.041 221.064 253.041 221.064L179.16 135.293C157.458 109.088 181.815 86.2316 181.815 86.2316Z" fill="white" stroke="#262626" stroke-width="0.577193" stroke-miterlimit="10"/>
<path d="M65.1064 205.712L78.4973 245.307H14.8906L0.345291 205.712H65.1064Z" fill="white" stroke="#262626" stroke-width="0.577193" stroke-miterlimit="10"/>
<path d="M113.013 205.712C113.013 205.712 115.437 202.941 108.973 190.589C102.508 178.122 84.6151 161.499 84.6151 161.499C84.6151 161.499 77.3424 154.226 76.0726 152.956L128.713 190.935L113.013 205.712Z" fill="#262626"/>
<circle r="8.51703" transform="matrix(-1 0 0 1 39.0274 226.388)" fill="white" stroke="#262626" stroke-width="0.549486"/>
</g>
<defs>
<clipPath id="clip0_1_352">
<rect width="493.269" height="258.698" fill="white" transform="matrix(-1 0 0 1 493.269 0)"/>
</clipPath>
</defs>
</svg>
