<svg width="18" height="20" viewBox="0 0 18 20" fill="none" xmlns="http://www.w3.org/2000/svg">
<path d="M17.9992 7.4611C17.9992 6.3212 17.6332 5.2504 16.9345 4.3178C17.2006 3.4197 17.2672 2.2798 17.2006 0.9672C17.1674 0.4145 16.7348 0 16.2025 0C15.903 0 13.3744 0.0344995 11.9104 1.3817C10.6461 1.1399 9.31516 1.1399 8.01756 1.3817C6.58696 0.0344995 4.05826 0 3.72556 0C3.19316 0 2.76066 0.4145 2.72736 0.9672C2.62756 2.2798 2.72736 3.4197 2.99356 4.3178C2.29486 5.285 1.92886 6.3558 1.92886 7.4611C1.92886 9.8791 3.72556 12.0553 6.45386 13.0915C6.35406 13.2988 6.28746 13.5406 6.22096 13.7824C3.32626 13.4715 1.96216 10.7427 1.89556 10.639C1.66266 10.1209 1.06386 9.9136 0.564759 10.19C0.0656593 10.4318 -0.133941 11.0535 0.132159 11.5717C0.198759 11.7444 2.02866 15.4404 6.05456 15.8549V18.9637C6.05456 19.5509 6.48706 20 7.05276 20H12.8753C13.4409 20 13.8735 19.5509 13.8735 18.9637V14.8532C13.8735 14.2314 13.7404 13.6442 13.5075 13.1261C16.2025 12.0553 17.9992 9.9136 17.9992 7.4611Z" fill="#DBD8D7"/>
</svg>
