<svg width="147" height="410" viewBox="0 0 147 410" fill="none" xmlns="http://www.w3.org/2000/svg">
<g clip-path="url(#clip0_1_296)">
<path d="M206.821 347.489L220.242 343.769L216.524 330.354L203.103 334.075L199.385 320.66L212.806 316.94L209.087 303.525L195.666 307.245L182.245 310.965L178.527 297.551L191.948 293.831L188.23 280.416L174.808 284.136L178.527 297.551L165.106 301.271L151.684 304.991L147.966 291.576L134.545 295.297L121.124 299.017L124.842 312.431L128.56 325.846L115.139 329.566L111.421 316.152L105.433 317.811L99.1692 227.431C99.1692 227.431 108.061 214.188 131.951 213.344C167.735 212.093 185.298 231.337 214.912 237.907C233.524 242.082 237.652 233.715 237.652 233.715L249.728 311.373C249.728 311.373 280.877 304.628 298.662 325.477C309.217 337.886 293.352 350.839 276.937 355.389C259.799 360.14 239.53 357.202 207.079 348.418L206.821 347.489Z" fill="white" stroke="#FF6B00" stroke-width="0.496227" stroke-miterlimit="10"/>
<path d="M144.157 329.967C138.933 329.971 134.351 330.685 130.193 331.727L128.562 325.845L141.983 322.125L144.157 329.967Z" fill="white" stroke="#FF6B00" stroke-width="0.496227" stroke-miterlimit="10"/>
<path d="M108.536 345.841L107.504 346.127L106.47 331.969L115.142 329.565L117.315 337.407C112.892 340.3 109.908 343.572 108.536 345.841Z" fill="white" stroke="#FF6B00" stroke-width="0.496227" stroke-miterlimit="10"/>
<path d="M138.263 308.712L151.684 304.992L155.403 318.406L141.982 322.126L138.263 308.712Z" fill="white" stroke="#FF6B00" stroke-width="0.496227" stroke-miterlimit="10"/>
<path d="M155.732 215.306C155.732 215.306 142.748 208.571 126.309 214.239C109.87 219.906 70.1975 256.46 70.1975 256.46L68.951 327.365C68.951 327.365 117.372 286.276 133.322 282.855C148.52 279.531 161.476 286.162 161.476 286.162L155.732 215.306Z" fill="#262626"/>
<path d="M143.07 197.704C143.07 197.704 130.813 193.99 113.648 196.637C98.1916 199.032 57.5359 238.858 57.5359 238.858L56.2894 309.764C56.2894 309.764 105.197 270.428 120.66 265.253C136.124 260.078 148.53 265.528 148.53 265.528L143.07 197.704Z" fill="white" stroke="#FF6B00" stroke-width="0.496227" stroke-miterlimit="10"/>
<path d="M102.319 201.888L102.55 233.604L71.6533 258.502L71.8305 225.451L94.391 206.975L102.319 201.888Z" fill="#262626"/>
<path d="M137.855 337.713L172.543 328.098L178.636 350.077L143.947 359.692L137.855 337.713Z" fill="white" stroke="#FF6B00" stroke-width="0.496227" stroke-miterlimit="10"/>
<path d="M169.82 341.249L166.014 344.734L165.77 343.853L168.691 341.295L168.676 341.24L164.854 340.551L164.61 339.67L169.667 340.699L169.82 341.249ZM159.819 338.746L160.562 338.54L165.171 346.346L164.427 346.552L159.819 338.746ZM156.435 347.626L152.498 345.398L154.726 341.461L155.403 341.844L153.824 344.623L159.473 343.057L159.683 343.814L154.034 345.38L156.82 346.957L156.435 347.626ZM146.306 347.767L146.153 347.216L149.959 343.731L150.203 344.612L147.281 347.17L147.297 347.225L151.118 347.915L151.362 348.795L146.306 347.767Z" fill="black"/>
<path d="M94.3428 199.989L94.4704 231.733L63.5734 256.632L63.7605 226.023L94.3428 199.989Z" fill="white" stroke="#262626" stroke-width="0.496227" stroke-miterlimit="10"/>
<path d="M138.7 173.915L135.893 144.135L166.818 119.34L169.282 147.881L138.7 173.915Z" fill="white" stroke="#262626" stroke-width="0.496227" stroke-miterlimit="10"/>
<path d="M152.592 151.842C150.653 152.379 148.646 151.244 148.109 149.307C147.572 147.369 148.708 145.363 150.647 144.825C152.585 144.288 154.592 145.423 155.129 147.361C155.666 149.298 154.53 151.305 152.592 151.842Z" fill="white" stroke="#262626" stroke-width="0.496227" stroke-miterlimit="10"/>
<path d="M79.7221 237.489L79.7202 248.712L68.8187 257.512L68.935 246.702L79.7221 237.489Z" fill="white" stroke="#262626" stroke-width="0.496227" stroke-miterlimit="10"/>
<path d="M119.261 254.197L119.352 272.173L102.445 282.971L102.525 265.614L119.261 254.197Z" fill="white" stroke="#262626" stroke-width="0.496227" stroke-miterlimit="10"/>
</g>
<defs>
<clipPath id="clip0_1_296">
<rect width="406.889" height="312.031" fill="white" transform="matrix(-0.963665 0.267112 0.267112 0.963665 392.105 0)"/>
</clipPath>
</defs>
</svg>
