<svg width="20" height="20" viewBox="0 0 20 20" fill="none" xmlns="http://www.w3.org/2000/svg">
<path d="M13.6444 3.03442C10.1557 3.03442 7.28857 5.86202 7.28857 9.37932V19.3103C7.28857 19.6896 7.59947 19.9999 7.97947 19.9999H11.5719C11.9519 19.9999 12.2627 19.6896 12.2627 19.3103V9.65512C12.2627 8.89652 12.8845 8.27582 13.6444 8.27582C14.4044 8.27582 15.0261 8.89652 15.0261 9.65512V19.3103C15.0261 19.6896 15.337 19.9999 15.717 19.9999H19.3094C19.6893 19.9999 20.0002 19.6896 20.0002 19.3103V9.37932C20.0002 5.89652 17.1677 3.03442 13.6444 3.03442Z" fill="#DBD8D7"/>
<path d="M4.2832 6.27588H0.6908C0.3109 6.27588 0 6.58618 0 6.96548V19.3104C0 19.6897 0.3109 20 0.6908 20H4.2832C4.6632 20 4.9741 19.6897 4.9741 19.3104V6.96548C4.9741 6.58618 4.6632 6.27588 4.2832 6.27588Z" fill="#DBD8D7"/>
<path d="M2.487 0C1.1054 0 0 1.1034 0 2.4828C0 3.8621 1.1054 4.9655 2.487 4.9655C3.8687 4.9655 4.9741 3.8621 4.9741 2.4828C4.9741 1.1034 3.8687 0 2.487 0Z" fill="#DBD8D7"/>
</svg>
