<svg width="20" height="16" viewBox="0 0 20 16" fill="none" xmlns="http://www.w3.org/2000/svg">
<path d="M18.404 1.8804L20 0.3377V0H14.472L10.532 9.9099L6.049 0H0.251999V0.3377L2.117 2.6055C2.298 2.7731 2.393 3.0181 2.369 3.2648V12.1768C2.427 12.4977 2.32301 12.8278 2.10001 13.0611L0 15.6328V15.9663H5.95399V15.6286L3.854 13.0611C3.627 12.8269 3.519 12.5027 3.565 12.1768V4.4682L8.79201 15.9705H9.399L13.893 4.4682V13.6312C13.893 13.8728 13.893 13.9225 13.737 14.0808L12.12 15.6615V16H19.963V15.6623L18.405 14.1204C18.268 14.016 18.198 13.8408 18.227 13.6707V2.3301C18.198 2.1592 18.267 1.984 18.404 1.8804Z" fill="#DBD8D7"/>
</svg>
