<svg width="20" height="21" viewBox="0 0 20 21" fill="none" xmlns="http://www.w3.org/2000/svg">
<path d="M19.7661 1.3698C19.4331 0.971095 18.8661 0.871435 18.4331 1.1704L16.5001 2.49931C15.6001 1.53591 14.3331 1.00431 12.9661 1.00431C10.2661 1.00431 8.03313 3.19701 8.03313 5.92121C8.03313 6.31991 8.06613 6.68541 8.16613 7.05081C5.83313 6.55251 4.43312 4.8581 3.90012 1.8017C3.83312 1.403 3.53312 1.10401 3.13312 1.00431C2.76612 0.904655 2.36612 1.0708 2.13312 1.3698C2.06612 1.4362 -3.43387 9.0774 4.53313 15.5558C3.76613 17.1837 1.46612 18.579 0.566122 19.0441C0.133122 19.2435 -0.0668675 19.7086 0.0331325 20.1737C0.133132 20.6388 0.533128 20.9378 1.00013 20.9378H2.73313C12.8661 20.9378 17.4661 15.9212 17.5661 4.69201L19.6661 2.6987C20.0661 2.3664 20.1001 1.7684 19.7661 1.3698Z" fill="#DBD8D7"/>
</svg>
