<svg width="16" height="20" viewBox="0 0 16 20" fill="none" xmlns="http://www.w3.org/2000/svg">
<path d="M7.46425 20C12.1611 20 15.0831 16.5392 15.0831 12.0742C15.0831 10.3908 14.8091 8.8708 12.8981 8.4142C13.3631 7.1408 14.7051 3.4575 14.7051 2.2775C14.7051 1.2383 14.0801 0.3675 12.9661 0.3675C11.1901 0.3675 9.59805 5.5117 9.10005 6.7383C8.71405 5.625 6.90755 0 5.31505 0C4.07755 0 3.49675 0.8942 3.49675 2.0192C3.49675 3.3983 4.85755 6.9725 5.35095 8.3475C5.10095 8.2575 4.83005 8.1792 4.55425 8.1792C3.62255 8.1792 2.63175 9.3158 2.63175 10.2342C2.63175 10.5817 2.82675 11.07 2.95005 11.3942C1.48175 11.785 0.916753 12.7458 0.916753 14.195C0.912553 17.015 3.63595 20 7.46425 20ZM11.489 4.2192C11.649 3.7383 12.3291 1.7075 12.9661 1.7075C13.3081 1.7075 13.4001 2.055 13.4001 2.3325C13.4001 3.0783 11.8641 7.2 11.5251 8.1133L10.172 7.8792L11.489 4.2192ZM4.74675 1.8875V1.8867C4.74675 1.4217 5.32425 0.1017 6.58925 3.7267L7.96675 7.645C7.34595 7.5942 6.86425 7.5275 6.55845 7.7C6.12425 6.575 4.74675 3.0242 4.74675 1.8875ZM4.65505 9.5308L4.65595 9.5317C5.82175 9.5317 7.32675 13.2267 7.32675 13.7267C7.32675 13.9258 7.13175 14.1717 6.90505 14.1717C6.07255 14.1717 3.84345 11.1675 3.84345 10.355C3.84675 10.0542 4.34845 9.5308 4.65505 9.5308ZM3.31505 12.5892C3.76845 12.5892 5.47595 14.945 5.47595 15.445C5.47595 15.6367 5.16925 15.7692 5.01095 15.7692C4.37005 15.7692 4.11925 15.1633 2.97755 13.7617C1.79505 14.9217 3.79345 17.1558 5.29845 17.1558C6.33675 17.1558 7.01345 16.2108 6.81095 15.515C6.95845 15.515 7.14095 15.5267 7.27675 15.4917C7.32095 16.55 7.63925 17.8117 8.93705 17.9017C8.93705 17.8667 9.01705 17.6242 9.01705 17.6125C9.01705 16.9325 8.59505 16.3392 8.59505 15.6475C8.59505 14.5417 9.45805 13.4717 10.3341 12.8467C10.6531 12.6125 11.0391 12.4675 11.4131 12.335C11.7991 12.1908 12.209 12.0225 12.503 11.7333C12.458 11.2958 12.2761 10.9092 11.8301 10.9092C10.7281 10.9092 7.03005 11.0658 7.03005 9.3583C7.03005 9.0967 7.03425 8.8467 7.72345 8.8467C9.00905 8.8467 12.273 9.1592 13.228 9.9833C13.948 10.6125 14.1961 14.405 11.9941 16.8075L11.992 16.8083C10.833 18.0583 9.35305 18.7067 7.62505 18.7067C5.26095 18.7067 3.39345 17.4333 2.49425 15.2575C1.81345 13.5625 2.64595 12.5892 3.31505 12.5892ZM8.06605 11.8858C8.45305 12.0075 8.85105 12.0433 9.24905 12.1208C8.95405 12.3317 8.69305 12.59 8.44105 12.8667C8.32905 12.535 8.19305 12.2108 8.06605 11.8858Z" fill="#DBD8D7"/>
</svg>
